<svg version="1.2" xmlns="http://www.w3.org/2000/svg" viewBox="0 0 595 205" width="595" height="205">
	<title>central H staro-novi logo - bela varijanta-ai</title>
	<defs>
		<clipPath clipPathUnits="userSpaceOnUse" id="cp1">
			<path d="m454.92 89.75v47.75h-10.32l0.36-51.26zm-409.07 39h3.04v-52.15l-2.49 0.82c-2.52 0.83-4.01-0.68-4.65-2.19l-0.5-1.17c-0.64-1.52-0.45-3.88 1.66-4.58l49.02-16.12-0.04-7.4 0.01-0.01q0.01-0.82 0.26-2.22c0.38-2.21 3.43-4.09 5.62-3.45l58.17 16.74c2.33 0.67 3.13 2.93 2.78 4.54l-0.27 1.28c-0.35 1.61-2.24 3.21-4.95 2.44l-1.15-0.33v63.8h2.64c1.64 0 2.99 1.35 2.99 2.99v2.65c0 1.64-1.35 2.99-2.99 2.99h-109.15c-1.64 0-2.99-1.35-2.99-2.99v-2.65c0-1.64 1.35-2.99 2.99-2.99zm103.19-64.76l-54.37-15.61-0.15 10.29q0.01 0.17-0.01 0.34c-0.12 1.43-1.54 3.06-2.84 3.49l-39.79 13.11v53.14h97.16zm-56.49 50.5v10.93h-36.72v-45.99l36.72-12.39v12.44l-25.79 8.7v26.31zm4.44-60.29l10.93 2.55v36.39h26.13v-16.9h10.93v49.18h-10.93v-21.34h-26.13v21.34h-10.93zm132.87 71.22v11.77h-46.64v-57.17l45.12-16.21 1.52-0.55v13.82l-34.86 11.76v36.58zm205.35-15.43v27.5h-28.29c-10 0-12.22-6.69-12.22-14.95 0-6.25 5.45-11.42 11.62-11.3h18.96c0-10.77-11.9-11.51-26.79-11.51l-0.17-7.89c20.4 0 34.8 1.71 36.89 18.15zm-47.4-10.88v9.42h-8.69v-7.1c0-2.66-3.9-4.79-8.72-4.79h-1.51v40.85h-9.18v-49.49h10.69c9.64 0 17.41 4.97 17.41 11.11zm-37.27 29.04v9.34h-7.85c-6.65 0-12.04-5.33-12.04-11.91v-28.94h-7.28v-9.6h7.28v-17.75h9.56v17.75h10.33v9.6h-10.33v27.83c0 3.03 4.61 3.68 10.33 3.68zm-36.25-29.04v38.38h-8.79v-30.55c-0.26-1.39 2.11-8.71-16.15-6.54v37.09h-8.87v-46.23c32.11-3.84 33.81 5.3 33.81 7.85zm-43.68 29.71v8.67h-18.53c-10.6 0.16-16.82-7.77-16.82-17.35 0-13.87-0.59-25.27 35.35-25.12v8.16c-20.55 0-24.98 3.1-24.98 9.03l24.98-0.97v8.9l-24.98 0.79c0 3.99 3.04 7.74 7.45 7.74zm154.66 0v-9.8h-15.3c-2.84 0-5.16 1.94-5.16 4.31 0 3.04 1.37 5.49 3.07 5.49z"/>
		</clipPath>
		<linearGradient id="g1" x1="213.9" y1="124.1" x2="218.6" y2="49.8" gradientUnits="userSpaceOnUse">
			<stop offset="0" stop-color="#f4811f"/>
			<stop offset=".4" stop-color="#f29220"/>
			<stop offset="1" stop-color="#f0a420"/>
		</linearGradient>
	</defs>
	<style>
		.s0 { fill: #fefefe } 
		.s1 { fill: url(#g1) } 
		.s2 { fill: none } 
	</style>
	<g id="Layer 1">
		<path id="&lt;Compound Path&gt;" fill-rule="evenodd" class="s0" d="m544 151.7h4.3q2.9 0 4.5 1.4 1.6 1.5 1.6 4.5 0 1.6-0.4 2.8-0.4 1.2-1.1 2.1-0.7 0.8-1.9 1.3-1.1 0.4-2.7 0.4h-4.3zm1.7 11.1h2.8q0.2 0 0.7 0 0.4-0.1 0.9-0.2 0.4-0.2 0.9-0.5 0.5-0.3 0.8-0.9 0.4-0.5 0.6-1.3 0.3-0.8 0.3-2 0-1.1-0.2-2-0.3-0.9-0.8-1.5-0.5-0.6-1.2-1-0.8-0.3-2-0.3h-2.8zm-22-4.9q0-1.2 0.3-2.4 0.4-1.2 1.2-2.1 0.7-0.9 1.9-1.5 1.1-0.5 2.6-0.5 1.5 0 2.6 0.5 1.1 0.6 1.9 1.5 0.7 0.9 1.1 2.1 0.4 1.2 0.4 2.4 0 1.3-0.4 2.5-0.4 1.2-1.1 2.1-0.8 0.9-1.9 1.5-1.1 0.5-2.6 0.5-1.5 0-2.6-0.5-1.2-0.6-1.9-1.5-0.8-0.9-1.2-2.1-0.3-1.2-0.3-2.5zm1.6 0q0 1 0.3 1.9 0.2 0.9 0.8 1.7 0.5 0.7 1.3 1.2 0.8 0.4 2 0.4 1.1 0 1.9-0.4 0.9-0.5 1.4-1.2 0.5-0.8 0.8-1.7 0.2-0.9 0.2-1.9 0-0.9-0.2-1.8-0.3-1-0.8-1.7-0.5-0.7-1.4-1.2-0.8-0.4-1.9-0.4-1.2 0-2 0.4-0.8 0.5-1.3 1.2-0.6 0.7-0.8 1.7-0.3 0.9-0.3 1.8zm-13 6.3h-1.9l-4.4-12.5h1.8l3.5 10.8h0.1l3.6-10.8h1.7zm-25.2-6.3q0-1.3 0.3-2.5 0.4-1.2 1.2-2.1 0.7-0.9 1.8-1.4 1.2-0.6 2.7-0.6 1.5 0 2.6 0.6 1.1 0.5 1.9 1.4 0.7 0.9 1.1 2.1 0.4 1.2 0.4 2.5 0 1.3-0.4 2.5-0.4 1.1-1.1 2.1-0.8 0.9-1.9 1.4-1.1 0.6-2.6 0.6-1.5 0-2.7-0.6-1.1-0.5-1.8-1.4-0.8-1-1.2-2.1-0.3-1.2-0.3-2.5zm1.6 0q0 0.9 0.3 1.9 0.2 0.9 0.7 1.6 0.6 0.8 1.4 1.2 0.8 0.5 2 0.5 1.1 0 1.9-0.5 0.9-0.4 1.4-1.2 0.5-0.7 0.8-1.6 0.2-1 0.2-1.9 0-1-0.2-1.9-0.3-0.9-0.8-1.6-0.5-0.8-1.4-1.2-0.8-0.5-1.9-0.5-1.2 0-2 0.5-0.8 0.4-1.4 1.2-0.5 0.7-0.7 1.6-0.3 0.9-0.3 1.9zm-19.6-6.3h4.3q2.9 0 4.5 1.5 1.5 1.5 1.5 4.5 0 1.6-0.3 2.8-0.4 1.2-1.1 2.1-0.8 0.8-1.9 1.2-1.1 0.5-2.7 0.5h-4.3zm1.7 11.1h2.7q0.3 0 0.7 0 0.5-0.1 0.9-0.3 0.5-0.1 1-0.4 0.4-0.4 0.8-0.9 0.4-0.5 0.6-1.4 0.3-0.8 0.3-1.9 0-1.2-0.3-2-0.2-0.9-0.7-1.5-0.5-0.7-1.3-1-0.8-0.3-1.9-0.3h-2.8zm-22.1-4.9q0-1.3 0.4-2.5 0.4-1.2 1.2-2.1 0.7-0.9 1.8-1.4 1.2-0.6 2.6-0.6 1.5 0 2.7 0.6 1.1 0.5 1.8 1.4 0.8 0.9 1.2 2.1 0.4 1.2 0.4 2.5 0 1.3-0.4 2.5-0.4 1.2-1.2 2.1-0.7 0.9-1.8 1.4-1.2 0.6-2.7 0.6-1.4 0-2.6-0.6-1.1-0.5-1.8-1.4-0.8-0.9-1.2-2.1-0.4-1.2-0.4-2.5zm1.7 0q0 1 0.3 1.9 0.2 0.9 0.7 1.6 0.6 0.8 1.4 1.2 0.8 0.5 1.9 0.5 1.2 0 2-0.5 0.8-0.4 1.4-1.2 0.5-0.7 0.7-1.6 0.3-0.9 0.3-1.9 0-0.9-0.3-1.9-0.2-0.9-0.7-1.6-0.6-0.8-1.4-1.2-0.8-0.5-2-0.5-1.1 0-1.9 0.5-0.8 0.4-1.4 1.2-0.5 0.7-0.7 1.6-0.3 1-0.3 1.9zm-13.1 6.3h-1.8l-4.5-12.6h1.8l3.6 10.9h0.1l3.6-10.9h1.7zm-20-13.8h1.2v17.6h-1.2zm-19.2 1.3h1.9l4.9 12.5h-1.9l-1.3-3.8h-5.3l-1.4 3.8h-1.8zm-1.2 7.4h4.2l-2-5.9h-0.1zm-11.2 2.1q0 0.6-0.2 1.2-0.2 0.6-0.6 1.1-0.4 0.5-1.1 0.8-0.7 0.3-1.8 0.3-1.7 0-2.7-1-0.9-0.9-0.9-2.7v-0.7h1.6v0.5q0 0.5 0.1 1 0.1 0.4 0.3 0.8 0.2 0.3 0.6 0.5 0.4 0.2 1 0.2 1.2 0 1.6-0.6 0.4-0.6 0.4-1.7v-9.2h1.7zm-17.1-9.4h1.6v12.6h-1.6zm-10.3 3.8q-0.1-0.7-0.4-1.2-0.3-0.5-0.8-0.9-0.5-0.3-1.1-0.5-0.5-0.1-1.2-0.1-1.1 0-1.9 0.4-0.8 0.4-1.3 1.1-0.5 0.7-0.8 1.7-0.2 0.9-0.2 1.9 0 1 0.2 2 0.3 0.9 0.8 1.7 0.5 0.7 1.3 1.1 0.8 0.4 1.9 0.4 0.9 0 1.5-0.3 0.6-0.2 1.1-0.7 0.5-0.5 0.7-1.2 0.3-0.6 0.4-1.4h1.6q-0.2 2.3-1.6 3.7-1.4 1.3-3.8 1.3-1.5 0-2.6-0.5-1-0.5-1.8-1.4-0.7-0.9-1-2.1-0.4-1.1-0.4-2.5 0-1.4 0.4-2.6 0.4-1.2 1.1-2.1 0.8-0.9 1.9-1.4 1.1-0.5 2.5-0.5 1 0 1.9 0.2 0.9 0.3 1.6 0.8 0.6 0.5 1.1 1.3 0.5 0.8 0.6 1.8zm-23.1-3.8h1.9l4.9 12.5h-1.9l-1.4-3.8h-5.3l-1.4 3.8h-1.7zm-1.2 7.4h4.2l-2.1-5.9zm-20.2 3.8l7.8-9.7h-7.2v-1.4h9.2v1.4l-7.8 9.7h8v1.4h-10zm-9.8-11.1h1.7v12.5h-1.7zm-13.6 1.4h-4.2v-1.4h10.1v1.4h-4.2v11.2h-1.7zm-15.5-1.4h1.9l4.9 12.5h-1.9l-1.4-3.8h-5.3l-1.4 3.8h-1.7zm-1.2 7.4h4.2l-2.1-5.9zm-23.7-7.4h2.2l4 10.6 4-10.6h2.3v12.6h-1.6v-10.5h-0.1l-3.9 10.5h-1.4l-3.9-10.5h-0.1v10.5h-1.5zm-10.8 0h1.6v12.5h-1.6zm-16.2 0h1.7v11.2h6.6v1.4h-8.3zm-18 0h1.7v6.2l6.3-6.2h2.2l-5.3 5 5.5 7.5h-2.1l-4.5-6.3-2.1 1.9v4.4h-1.7zm-15.1-1.3h1.2v17.6h-1.2zm-21.9 1.3h8.7v1.4h-7v4h6.5v1.4h-6.5v4.3h7v1.4h-8.7zm-9 9.4q0 0.7-0.2 1.3-0.2 0.6-0.6 1.1-0.5 0.5-1.2 0.8-0.7 0.3-1.7 0.3-1.8 0-2.7-1-1-0.9-1-2.7v-0.8h1.7v0.6q0 0.5 0.1 1 0.1 0.4 0.3 0.8 0.2 0.3 0.6 0.5 0.4 0.2 1 0.2 1.1 0 1.6-0.7 0.4-0.6 0.4-1.6v-9.2h1.7zm-25.4-9.4h1.8l6.6 10.2v-10.2h1.6v12.5h-1.8l-6.6-10v10h-1.6zm-14.3 0h1.9l4.9 12.6h-1.9l-1.3-3.8h-5.3l-1.4 3.8h-1.8zm-1.2 7.3h4.2l-2.1-5.8zm-11.2 2.1q0 0.6-0.2 1.2-0.2 0.6-0.6 1.1-0.4 0.5-1.1 0.8-0.7 0.3-1.8 0.3-1.7 0-2.7-1-0.9-0.9-0.9-2.7v-0.7h1.6v0.5q0 0.5 0.1 1 0.1 0.4 0.3 0.8 0.2 0.3 0.6 0.5 0.4 0.2 1 0.2 1.2 0 1.6-0.6 0.4-0.7 0.4-1.7v-9.2h1.7zm-23.4-9.4h8.7v1.4h-7v4h6.5v1.4h-6.5v4.4h7v1.4h-8.7zm-18.3 0h5.9q1.8 0 2.8 0.9 1 0.8 1 2.3 0 1.2-0.5 2.1-0.5 0.8-1.7 1.1v0.1q0.6 0.1 0.9 0.3 0.3 0.3 0.6 0.6 0.2 0.3 0.3 0.8 0 0.4 0.1 0.8 0 0.5 0.1 1 0 0.5 0 0.9 0.1 0.5 0.2 0.9 0.2 0.4 0.4 0.7h-1.8q-0.2-0.2-0.3-0.5 0-0.4 0-0.8-0.1-0.4-0.1-0.9 0-0.4-0.1-0.9-0.1-0.4-0.2-0.9-0.1-0.4-0.3-0.7-0.2-0.3-0.6-0.5-0.4-0.2-1-0.2h-4.1v5.4h-1.6zm5.1 5.8q0.6 0 1.1-0.1 0.6-0.1 1-0.3 0.3-0.3 0.6-0.7 0.2-0.5 0.2-1.1 0-1-0.5-1.6-0.5-0.6-1.7-0.6h-4.2v4.4zm-15.4 5.2q-0.3 0.5-0.8 0.8-0.5 0.4-1 0.6-0.5 0.2-1.1 0.3-0.5 0.1-1.1 0.1-1.4 0-2.5-0.5-1.1-0.5-1.9-1.4-0.7-0.9-1.1-2-0.4-1.1-0.4-2.4 0-1.3 0.3-2.6 0.4-1.2 1.2-2.2 0.7-0.9 1.8-1.4 1.1-0.6 2.6-0.6 1 0 2 0.2 0.9 0.3 1.6 0.8 0.7 0.5 1.2 1.3 0.4 0.8 0.6 1.9h-1.6q-0.2-0.7-0.5-1.3-0.3-0.5-0.8-0.8-0.5-0.4-1.1-0.5-0.7-0.2-1.4-0.2-1.1 0-1.9 0.5-0.8 0.4-1.4 1.2-0.5 0.7-0.7 1.7-0.3 0.9-0.3 1.9 0 1 0.3 1.9 0.3 0.9 0.8 1.6 0.6 0.7 1.4 1.1 0.8 0.4 1.8 0.4 1 0 1.8-0.3 0.7-0.3 1.2-0.8 0.6-0.6 0.8-1.3 0.3-0.8 0.2-1.7h-4v-1.4h5.5v6.6h-1z"/>
		<g id="&lt;Clip Group&gt;" clip-path="url(#cp1)">
			<path id="&lt;Path&gt;" class="s1" d="m34.3 137.2l8-124.1 418.9 27-8 124.1z"/>
			<path id="&lt;Compound Path&gt;" fill-rule="evenodd" class="s2" d="m454.9 89.7v47.8h-10.3l0.4-51.3zm-409.1 39h3v-52.1l-2.5 0.8c-2.5 0.8-4-0.7-4.6-2.2l-0.5-1.2c-0.7-1.5-0.5-3.8 1.7-4.5l49-16.2-0.1-7.3v-0.1q0.1-0.8 0.3-2.2c0.4-2.2 3.4-4.1 5.6-3.4l58.2 16.7c2.3 0.7 3.1 2.9 2.8 4.5l-0.3 1.3c-0.3 1.6-2.2 3.2-5 2.5l-1.1-0.4v63.8h2.6c1.7 0 3 1.4 3 3v2.7c0 1.6-1.3 3-3 3h-109.1c-1.7 0-3-1.4-3-3v-2.7c0-1.6 1.3-3 3-3zm103.2-64.7l-54.4-15.6-0.1 10.3q0 0.1 0 0.3c-0.2 1.4-1.6 3.1-2.9 3.5l-39.8 13.1v53.1h97.2zm-56.5 50.5v11h-36.7v-46l36.7-12.4v12.4l-25.8 8.7v26.3zm4.4-60.2l11 2.5v36.4h26.1v-16.9h10.9v49.2h-10.9v-21.4h-26.1v21.4h-11zm132.9 71.2v11.8h-46.6v-57.2l45.1-16.2 1.5-0.6v13.8l-34.9 11.8v36.6zm205.4-15.4v27.5h-28.3c-10 0-12.2-6.7-12.2-15 0-6.2 5.4-11.4 11.6-11.3h19c0-10.8-11.9-11.5-26.8-11.5l-0.2-7.9c20.4 0 34.8 1.7 36.9 18.2zm-47.4-10.9v9.4h-8.7v-7.1c0-2.7-3.9-4.8-8.7-4.8h-1.5v40.9h-9.2v-49.5h10.7c9.6 0 17.4 4.9 17.4 11.1zm-37.3 29v9.4h-7.8c-6.7 0-12.1-5.4-12.1-12v-28.9h-7.2v-9.6h7.2v-17.7h9.6v17.7h10.3v9.6h-10.3v27.8c0 3.1 4.6 3.7 10.3 3.7zm-36.2-29v38.4h-8.8v-30.6c-0.3-1.4 2.1-8.7-16.2-6.5v37.1h-8.8v-46.3c32.1-3.8 33.8 5.3 33.8 7.9zm-43.7 29.7v8.7h-18.5c-10.6 0.1-16.8-7.8-16.8-17.4 0-13.9-0.6-25.3 35.3-25.1v8.1c-20.6 0-25 3.1-25 9.1l25-1v8.9l-25 0.8c0 4 3.1 7.7 7.5 7.7zm154.6 0v-9.8h-15.3c-2.8 0-5.1 2-5.1 4.4 0 3 1.3 5.4 3 5.4z"/>
		</g>
		<path id="&lt;Compound Path&gt;" class="s0" d="m490.1 114.4h-22v-9h22zm63.5-43.2v65.8h-11.9v-30.5h-27.3v30.5h-11.4v-79.5h11.4v32.4 5h27.3v-22.7-1h10.8z"/>
	</g>
</svg>